<?xml version="1.0" ?><svg viewBox="0 0 32 32" xmlns="http://www.w3.org/2000/svg"><defs><style>.cls-1{fill:#4bb1f7;}.cls-2{fill:#2893ea;}.cls-3{fill:#1a76d3;}</style></defs><title/><g id="Jacket"><path class="cls-1" d="M30,13.77V29a1,1,0,0,1-1,1H24a1,1,0,0,1-1-1V14.5a.5.5,0,0,0-1,0V27a1,1,0,0,1-1,1H11a1,1,0,0,1-1-1V14.5a.5.5,0,0,0-1,0V29a1,1,0,0,1-1,1H3a1,1,0,0,1-1-1V13.77A5,5,0,0,1,5.24,9.09L10,7.31V4a1.06,1.06,0,0,1,.05-.31l0-.07a1,1,0,0,1,.5-.53h0l.08,0c3.91-1.41,6.5-1.41,10.65,0a1,1,0,0,1,.6.55A1.1,1.1,0,0,1,22,4V7.31l4.76,1.78A5,5,0,0,1,30,13.77Z"/><rect class="cls-2" height="2" width="12" x="10" y="22"/><rect class="cls-2" height="2" width="12" x="10" y="18"/><path class="cls-3" d="M17,9V28H15V9a1,1,0,0,1,2,0Z"/><rect class="cls-2" height="2" width="7" x="2" y="24"/><rect class="cls-2" height="2" width="7" x="2" y="20"/><rect class="cls-2" height="2" width="7" x="2" y="16"/><rect class="cls-2" height="2" width="7" x="23" y="24"/><rect class="cls-2" height="2" width="7" x="23" y="20"/><rect class="cls-2" height="2" width="7" x="23" y="16"/><path class="cls-2" d="M21.92,3.6a1,1,0,0,0-.6-.55c-4.15-1.4-6.74-1.4-10.65,0l-.08,0h0a1,1,0,0,0-.5.53l0,.07A1.06,1.06,0,0,0,10,4a1,1,0,0,0,.09.41,10.16,10.16,0,0,0,5.45,5.48A1.07,1.07,0,0,0,16,10a.91.91,0,0,0,.23,0l.14,0,.1,0a10.09,10.09,0,0,0,5.44-5.47A1,1,0,0,0,22,4,1.1,1.1,0,0,0,21.92,3.6Z"/></g></svg>